<svg aria-hidden="true" style="position: absolute; width: 0; height: 0; overflow: hidden;" version="1.1" xmlns="http://www.w3.org/2000/svg" xmlns:xlink="http://www.w3.org/1999/xlink">
<defs>
<symbol id="icon-sms" viewBox="0 0 32 32">
<path d="M7.904 3.763c-1.279 0.164-2.473 0.589-3.372 1.199-0.555 0.408-1.033 0.873-1.443 1.395l-0.012 0.016c-0.579 0.78-1.028 1.876-1.236 3.015-0.152 0.836-0.185 2.027-0.185 6.613s0.033 5.777 0.185 6.613c0.288 1.579 0.948 2.867 1.956 3.82 1.072 1.013 2.396 1.588 4.169 1.807 0.959 0.119 15.108 0.119 16.067 0 2.641-0.327 4.491-1.548 5.487-3.625 0.467-0.973 0.685-1.889 0.773-3.255 0.067-1.040 0.067-9.68 0-10.72-0.088-1.365-0.307-2.281-0.773-3.255-0.993-2.071-2.827-3.283-5.483-3.624-0.539-0.069-1.709-0.080-8.107-0.076-5.863 0.005-7.596 0.021-8.027 0.077zM23.616 5.709c2.719 0.295 4.239 1.701 4.62 4.276 0.125 0.84 0.125 11.189 0 12.029-0.357 2.415-1.687 3.784-4.081 4.208-0.521 0.092-1.019 0.097-8.155 0.097s-7.633-0.005-8.155-0.097c-2.395-0.424-3.723-1.793-4.081-4.208-0.125-0.84-0.125-11.189 0-12.029 0.376-2.537 1.9-3.973 4.529-4.269 0.624-0.071 14.679-0.076 15.323-0.007zM9.047 11.051c-0.158 0.058-0.294 0.144-0.405 0.255l0-0c-0.18 0.178-0.292 0.425-0.292 0.698 0 0.241 0.087 0.461 0.231 0.632l-0.001-0.001c0.283 0.328 4.597 3.721 5.015 3.943 0.695 0.371 1.233 0.501 2.195 0.531 0.649 0.020 0.924 0.005 1.28-0.067 0.597-0.12 1.176-0.347 1.601-0.625 0.496-0.327 4.717-3.699 4.815-3.847 0.375-0.572 0.080-1.357-0.569-1.52-0.483-0.121-0.504-0.108-2.944 1.835-1.231 0.981-2.372 1.855-2.536 1.943-0.4 0.213-0.883 0.32-1.453 0.32-0.024 0.001-0.052 0.001-0.080 0.001-0.497 0-0.965-0.123-1.375-0.341l0.016 0.008c-0.169-0.091-1.297-0.956-2.507-1.921-1.208-0.967-2.248-1.776-2.311-1.801-0.12-0.046-0.259-0.073-0.404-0.073-0.098 0-0.192 0.012-0.283 0.035l0.008-0.002z"></path>
</symbol>
<symbol id="icon-arrow" viewBox="0 0 32 32">
<path d="M18.635 7.558c-0.197 0.090-0.35 0.247-0.431 0.442l-0.002 0.006c-0.055 0.109-0.087 0.238-0.087 0.375 0 0.138 0.033 0.268 0.091 0.383l-0.002-0.005c0.064 0.137 1.079 1.184 3.136 3.238l3.044 3.038-9.651 0.024c-8.872 0.023-9.662 0.032-9.801 0.109-0.314 0.158-0.526 0.477-0.527 0.845v0c0 0.354 0.188 0.657 0.527 0.845 0.139 0.075 0.93 0.085 9.801 0.107l9.651 0.026-3.044 3.036c-2.057 2.056-3.072 3.102-3.136 3.238-0.053 0.112-0.085 0.243-0.085 0.382 0 0.297 0.143 0.561 0.365 0.725l0.002 0.002c0.154 0.117 0.248 0.147 0.52 0.162 0.301 0.015 0.352 0.004 0.557-0.136 0.378-0.252 7.864-7.782 7.955-7.998 0.047-0.118 0.074-0.255 0.074-0.399 0-0.117-0.018-0.23-0.052-0.336l0.002 0.008c-0.058-0.158-7.878-8.013-8.088-8.124-0.179-0.096-0.631-0.092-0.819 0.006z"></path>
</symbol>
<symbol id="icon-call" viewBox="0 0 32 32">
<path d="M6.933 1.712c-0.891 0.123-1.685 0.47-2.345 0.98l0.011-0.008c-0.788 0.608-1.711 1.721-2.141 2.581-0.965 1.933-1.025 4.433-0.167 7.055 1.725 5.269 7.444 11.871 13.428 15.5 0.967 0.587 2.508 1.352 3.401 1.689 2.407 0.911 4.755 1.051 6.665 0.399 1.792-0.611 3.3-1.951 4.075-3.62 0.784-1.692 0.457-3.448-0.829-4.459-0.553-0.435-4.692-3.34-5.061-3.553-0.62-0.357-1.165-0.524-1.727-0.528-1.005-0.008-1.655 0.335-2.845 1.5l-0.735 0.72-0.172-0.099c-1.507-0.863-5.143-4.448-6.264-6.177l-0.235-0.361 0.675-0.705c1.541-1.615 1.867-2.616 1.304-4.025-0.22-0.548-0.241-0.583-2.155-3.293-0.956-1.355-1.792-2.483-1.977-2.669-0.701-0.704-1.797-1.053-2.907-0.925zM8.084 3.817c0.169 0.080 0.368 0.231 0.475 0.36 0.443 0.537 3.301 4.633 3.476 4.981 0.364 0.727 0.261 0.972-0.927 2.211-0.449 0.468-0.863 0.941-0.92 1.053-0.239 0.468-0.232 1.189 0.015 1.729 0.673 1.469 4.313 5.344 6.483 6.899 1.077 0.773 1.655 0.992 2.319 0.877 0.492-0.084 0.644-0.181 1.343-0.86 0.863-0.836 1.163-1.092 1.435-1.22 0.343-0.161 0.584-0.145 1.020 0.065 0.425 0.204 4.993 3.421 5.204 3.664 0.292 0.336 0.359 1.035 0.156 1.623-0.343 0.987-1.347 2.057-2.428 2.587-0.723 0.355-1.307 0.485-2.293 0.517-0.097 0.004-0.21 0.006-0.324 0.006-0.872 0-1.712-0.136-2.5-0.388l0.058 0.016c-3.791-1.125-8.737-4.839-12.387-9.299-2.403-2.935-3.972-5.84-4.456-8.243-0.164-0.82-0.177-2.356-0.025-3.007 0.173-0.683 0.435-1.283 0.777-1.828l-0.015 0.026c0.323-0.485 1.019-1.193 1.435-1.459 0.721-0.463 1.516-0.581 2.083-0.313z"></path>
</symbol>
<symbol id="icon-cpu-charge" viewBox="0 0 32 32">
<path d="M10.586 1.68c-0.046 0.015-0.113 0.032-0.18 0.047l-0.018 0.003c-0.178 0.038-0.5 0.312-0.604 0.516-0.060 0.116-0.078 0.396-0.078 1.274 0 0.852-0.016 1.128-0.066 1.142-1.228 0.36-1.74 0.576-2.418 1.018-0.864 0.585-1.546 1.377-1.983 2.307l-0.015 0.035c-0.194 0.406-0.367 0.885-0.494 1.383l-0.012 0.055-0.034 0.184-1.13 0.018c-1.288 0.020-1.424 0.058-1.71 0.462-0.105 0.152-0.168 0.34-0.168 0.543s0.063 0.391 0.17 0.546l-0.002-0.003c0.278 0.392 0.44 0.44 1.564 0.462l0.98 0.018-0.034 0.484c-0.018 0.266-0.034 1.004-0.034 1.642v1.16l-0.946 0.018c-1.086 0.022-1.254 0.072-1.53 0.462-0.13 0.186-0.156 0.272-0.156 0.544s0.026 0.358 0.156 0.544c0.276 0.39 0.444 0.44 1.53 0.462l0.946 0.018v1.16c0 0.638 0.016 1.376 0.034 1.642l0.034 0.484-0.98 0.018c-1.124 0.022-1.286 0.070-1.564 0.462-0.13 0.184-0.156 0.272-0.156 0.544 0 0.27 0.026 0.358 0.156 0.542 0.286 0.404 0.422 0.442 1.71 0.462l1.13 0.018 0.034 0.184c0.018 0.102 0.096 0.37 0.17 0.596 0.712 2.146 2.12 3.466 4.366 4.090l0.426 0.118 0.026 1.168c0.026 1.086 0.036 1.182 0.144 1.356 0.185 0.268 0.491 0.441 0.837 0.441 0.277 0 0.528-0.111 0.711-0.291l-0 0c0.244-0.262 0.282-0.46 0.282-1.464v-0.944l0.52 0.036c0.286 0.018 1.042 0.034 1.68 0.034h1.16v0.968c0 0.928 0.006 0.978 0.128 1.188 0.32 0.546 1.134 0.642 1.562 0.182 0.244-0.26 0.284-0.462 0.284-1.43v-0.908h1.132c0.624 0 1.366-0.016 1.648-0.034l0.516-0.034 0.018 1.006c0.018 0.946 0.026 1.022 0.142 1.208 0.476 0.766 1.632 0.59 1.818-0.276 0.032-0.152 0.058-0.716 0.058-1.254v-0.978l0.19-0.034c0.555-0.141 1.035-0.315 1.492-0.529l-0.050 0.021c1.197-0.561 2.146-1.485 2.723-2.629l0.015-0.033c0.18-0.356 0.588-1.516 0.59-1.674 0-0.086 0.084-0.094 0.984-0.094 0.542 0 1.108-0.026 1.26-0.058 0.44-0.103 0.762-0.491 0.762-0.956 0-0.27-0.109-0.515-0.287-0.692v0c-0.266-0.266-0.53-0.32-1.584-0.32h-0.832l0.036-0.52c0.018-0.286 0.034-1.030 0.034-1.654v-1.132h0.798c0.438 0 0.92-0.028 1.072-0.060 0.88-0.188 1.044-1.398 0.246-1.82-0.2-0.106-0.32-0.12-1.17-0.138l-0.946-0.020v-1.128c0-0.62-0.016-1.362-0.034-1.648l-0.036-0.52h0.832c0.458 0 0.956-0.026 1.108-0.058 0.88-0.19 1.044-1.398 0.246-1.822-0.206-0.11-0.308-0.12-1.35-0.138l-1.13-0.018-0.034-0.184c-0.139-0.553-0.312-1.032-0.527-1.487l0.021 0.049c-0.592-1.254-1.585-2.239-2.81-2.805l-0.036-0.015c-0.406-0.184-1.364-0.508-1.504-0.508-0.068 0-0.080-0.152-0.080-1-0.002-1.378-0.082-1.65-0.548-1.888-0.135-0.072-0.295-0.114-0.465-0.114-0.343 0-0.645 0.172-0.825 0.435l-0.002 0.003-0.16 0.226-0.036 2.032-0.484-0.034c-0.456-0.022-0.991-0.034-1.528-0.034-0.042 0-0.084 0-0.126 0l0.007-0h-1.164l-0.002-0.814c-0.002-1.176-0.096-1.47-0.546-1.7-0.135-0.072-0.295-0.114-0.465-0.114-0.343 0-0.645 0.172-0.825 0.435l-0.002 0.003-0.16 0.226-0.020 0.982-0.018 0.982h-1.16c-0.638 0-1.38 0.016-1.648 0.034l-0.488 0.036v-0.944c0-1.024-0.038-1.206-0.304-1.484-0.16-0.168-0.624-0.332-0.79-0.282zM21.254 6.468c0.788 0.144 1.406 0.342 1.998 0.638 0.782 0.39 1.252 0.86 1.642 1.642 0.3 0.602 0.496 1.22 0.642 2.024 0.082 0.454 0.090 1.004 0.090 5.228s-0.008 4.774-0.090 5.228c-0.238 1.314-0.672 2.32-1.264 2.928-0.201 0.204-0.42 0.388-0.655 0.552l-0.015 0.010c-0.69 0.438-1.72 0.748-2.92 0.878-0.698 0.078-8.666 0.078-9.364 0-1.698-0.184-2.928-0.69-3.662-1.5-0.354-0.392-0.776-1.214-0.964-1.882-0.322-1.14-0.318-1.062-0.318-6.214 0-4.224 0.008-4.774 0.090-5.228 0.146-0.804 0.342-1.422 0.642-2.024 0.226-0.456 0.35-0.63 0.68-0.96 0.748-0.744 1.942-1.218 3.494-1.384 0.234-0.026 2.466-0.042 4.96-0.036 3.968 0.010 4.594 0.022 5.014 0.1zM13.21 8.376c-2.164 0.156-3.618 1.010-4.306 2.53-0.222 0.525-0.393 1.137-0.483 1.774l-0.005 0.040c-0.098 0.68-0.098 5.886 0 6.56 0.386 2.654 1.65 3.918 4.304 4.304 0.678 0.098 5.882 0.098 6.56 0 2.654-0.386 3.918-1.65 4.304-4.304 0.098-0.678 0.098-5.882 0-6.56-0.308-2.116-1.166-3.308-2.848-3.956-0.48-0.186-1.258-0.332-2.054-0.39-0.842-0.060-4.612-0.058-5.472 0.002zM19.634 10.492c0.86 0.24 1.344 0.606 1.642 1.24 0.344 0.73 0.35 0.816 0.35 4.268 0 3.476-0.006 3.55-0.368 4.298-0.306 0.634-0.744 0.962-1.62 1.21-0.402 0.116-0.48 0.118-3.638 0.118s-3.236-0.002-3.638-0.118c-0.876-0.248-1.314-0.576-1.62-1.21-0.362-0.748-0.368-0.822-0.368-4.298 0-2.8 0.010-3.162 0.094-3.522 0.292-1.242 0.908-1.806 2.244-2.054 0.294-0.054 1.090-0.068 3.448-0.058 2.954 0.010 3.082 0.016 3.474 0.126zM15.574 12.050c-0.116 0.064-0.216 0.139-0.304 0.224l0-0c-0.134 0.146-1.302 2.172-1.498 2.598-0.087 0.182-0.137 0.396-0.137 0.622 0 0.398 0.157 0.76 0.414 1.026l-0-0c0.294 0.326 0.626 0.444 1.346 0.48 0.334 0.016 0.606 0.038 0.606 0.048s-0.214 0.396-0.476 0.858c-0.173 0.282-0.344 0.614-0.491 0.959l-0.019 0.051c-0.078 0.382 0.216 0.898 0.6 1.060 0.38 0.158 0.818 0.068 1.088-0.222 0.154-0.166 1.31-2.154 1.526-2.626 0.32-0.696 0.026-1.594-0.63-1.928-0.242-0.124-0.756-0.212-1.238-0.212-0.023 0.001-0.050 0.002-0.078 0.002-0.1 0-0.198-0.011-0.291-0.032l0.009 0.002c0-0.014 0.222-0.414 0.492-0.888 0.448-0.788 0.49-0.886 0.488-1.136-0.003-0.156-0.035-0.303-0.091-0.438l0.003 0.008c-0.25-0.484-0.866-0.696-1.318-0.456z"></path>
</symbol>
<symbol id="icon-facebook" viewBox="0 0 32 32">
<path d="M11.173 1.687c-0.205 0.009-0.673 0.043-1.040 0.073-4.992 0.424-7.635 2.835-8.289 7.561-0.151 1.083-0.188 2.433-0.188 6.679 0 6.005 0.080 7.031 0.691 8.867 1.029 3.084 3.261 4.768 7.023 5.296 1.012 0.141 2.5 0.183 6.631 0.183s5.619-0.041 6.631-0.183c3.293-0.463 5.364-1.779 6.565-4.176 0.643-1.28 0.988-2.828 1.097-4.911 0.068-1.292 0.068-8.86 0-10.152-0.084-1.593-0.265-2.669-0.637-3.783-0.967-2.891-3.011-4.564-6.345-5.197-1.235-0.233-1.629-0.249-6.804-0.263-0.659-0.004-1.439-0.006-2.219-0.006-1.095 0-2.189 0.004-3.282 0.012l0.168-0.001zM22.4 3.805c3.715 0.616 5.219 2.133 5.797 5.848 0.088 0.561 0.096 1.099 0.096 6.347s-0.008 5.785-0.096 6.347c-0.579 3.719-2.116 5.267-5.797 5.843-0.381 0.060-1.067 0.096-2.147 0.116l-1.587 0.028v-8.703l1.545-0.015c1.521-0.016 1.547-0.017 1.665-0.136 0.097-0.097 0.172-0.369 0.396-1.439 0.252-1.195 0.271-1.336 0.207-1.489-0.039-0.093-0.1-0.17-0.177-0.227l-0.001-0.001c-0.071-0.037-0.709-0.057-1.871-0.057h-1.764v-2.027c0-1.956 0.004-2.031 0.107-2.133s0.177-0.107 1.893-0.107 1.791-0.004 1.893-0.107 0.107-0.177 0.107-1.893c0-1.735-0.003-1.789-0.111-1.897s-0.143-0.109-2.36-0.089c-2.148 0.019-2.267 0.025-2.648 0.14-1.263 0.371-2.248 1.316-2.666 2.527l-0.008 0.028-0.18 0.519-0.016 2.6-0.017 2.6h-1.247c-1.228 0-1.248 0.001-1.331 0.119-0.069 0.1-0.083 0.34-0.083 1.547 0 1.357 0.005 1.433 0.107 1.535 0.1 0.1 0.177 0.107 1.333 0.107h1.227v8.597l-2.253-0.025c-1.756-0.019-2.377-0.044-2.813-0.113-3.687-0.591-5.225-2.135-5.795-5.819-0.092-0.593-0.099-1.055-0.099-6.373 0-6.337-0.005-6.217 0.352-7.616 0.684-2.675 2.237-4.019 5.221-4.517 0.973-0.164 1.451-0.175 6.987-0.164 5.017 0.009 5.629 0.019 6.133 0.103z"></path>
</symbol>
<symbol id="icon-global-edit" viewBox="0 0 32 32">
<path d="M15.414 1.688c-3.052 0.135-5.832 1.2-8.089 2.916l0.035-0.026c-0.804 0.602-2.184 1.984-2.792 2.796-1.801 2.358-2.885 5.347-2.885 8.589 0 0.299 0.009 0.597 0.027 0.891l-0.002-0.040c0.161 2.965 1.21 5.657 2.883 7.846l-0.025-0.034c0.841 1.046 1.762 1.967 2.773 2.781l0.035 0.027c1.796 1.363 3.97 2.324 6.337 2.711l0.083 0.011c0.8 0.124 2.126 0.194 2.438 0.128 0.864-0.184 1.020-1.41 0.232-1.812-0.18-0.092-0.37-0.122-1.022-0.156-0.721-0.026-1.406-0.113-2.069-0.256l0.077 0.014c-0.4-0.082-0.488-0.132-0.49-0.28 0-0.040-0.106-0.412-0.236-0.826-0.402-1.282-0.884-3.188-1.018-4.030l-0.038-0.234 0.366 0.036c1.736 0.17 4.040 0.244 4.322 0.136 0.367-0.154 0.62-0.51 0.62-0.925 0-0.004-0-0.008-0-0.012v0.001c0-0.328-0.116-0.552-0.406-0.786l-0.202-0.164-1.53-0.064c-1.756-0.076-3.37-0.218-3.458-0.306-0.088-0.086-0.224-1.54-0.298-3.194-0.024-0.426-0.037-0.925-0.037-1.427s0.014-1.001 0.040-1.496l-0.003 0.069c0.056-1.266 0.18-2.826 0.25-3.136 0.024-0.102 0.094-0.118 0.974-0.202 1.108-0.12 2.393-0.189 3.694-0.189s2.586 0.069 3.852 0.203l-0.158-0.014c0.88 0.084 0.95 0.1 0.972 0.202 0.072 0.334 0.19 1.898 0.242 3.18 0.032 0.804 0.070 1.542 0.084 1.638 0.030 0.204 0.286 0.514 0.522 0.636 0.128 0.052 0.277 0.082 0.433 0.082 0.154 0 0.301-0.029 0.435-0.083l-0.008 0.003c0.22-0.122 0.394-0.306 0.499-0.529l0.003-0.007c0.108-0.282 0.034-2.586-0.136-4.322l-0.036-0.366 0.234 0.038c0.822 0.132 2.704 0.604 4.022 1.012 0.41 0.126 0.81 0.244 0.886 0.262 0.126 0.028 0.146 0.072 0.224 0.472 0.158 0.81 0.204 1.182 0.246 2.024 0.038 0.722 0.058 0.86 0.16 1.026 0.464 0.748 1.628 0.574 1.808-0.27 0.066-0.312-0.004-1.638-0.128-2.438-0.397-2.451-1.36-4.624-2.75-6.456l0.026 0.036c-0.608-0.812-1.988-2.194-2.792-2.796-1.916-1.46-4.261-2.456-6.815-2.779l-0.071-0.007c-0.59-0.069-1.275-0.108-1.968-0.108-0.131 0-0.261 0.001-0.391 0.004l0.019-0zM17.334 3.734c0.25 0.030 0.722 0.106 1.054 0.166 0.566 0.106 0.602 0.12 0.632 0.252 0.018 0.078 0.136 0.478 0.262 0.888 0.384 1.25 0.84 3.062 1.016 4.048l0.038 0.208-1.482-0.136c-0.91-0.084-4.798-0.084-5.708 0l-1.478 0.136 0.038-0.234c0.132-0.822 0.604-2.704 1.012-4.022 0.126-0.41 0.244-0.81 0.262-0.888 0.030-0.132 0.066-0.146 0.632-0.252 0.332-0.062 0.77-0.134 0.974-0.16 0.424-0.033 0.918-0.052 1.416-0.052 0.469 0 0.933 0.017 1.394 0.049l-0.062-0.004zM21.916 5.18c1.654 0.884 3.268 2.374 4.418 4.078 0.252 0.376 0.782 1.35 0.75 1.382-0.312-0.055-0.579-0.121-0.839-0.203l0.047 0.013c-0.748-0.219-1.837-0.477-2.94-0.695l-0.294-0.049-0.65-0.12-0.116-0.646c-0.182-1.002-0.792-3.568-0.942-3.958-0.044-0.116 0.016-0.096 0.566 0.198zM10.612 5.026c0 0.038-0.096 0.428-0.216 0.868-0.209 0.728-0.457 1.799-0.668 2.884l-0.048 0.296-0.090 0.514-0.648 0.118c-0.834 0.152-2.252 0.478-3.236 0.744-0.208 0.065-0.474 0.131-0.746 0.181l-0.046 0.007c0.080-0.209 0.166-0.386 0.267-0.554l-0.009 0.016c0.522-0.978 1.114-1.772 1.998-2.68 0.803-0.85 1.727-1.575 2.746-2.15l0.058-0.030c0.522-0.288 0.64-0.328 0.638-0.214zM9.256 12.094l-0.088 0.972c-0.042 0.646-0.072 1.436-0.084 2.232l-0 0.036c-0.030 1.662 0.012 2.866 0.15 4.308 0.034 0.344 0.048 0.642 0.030 0.658-0.078 0.078-2.698-0.544-4.060-0.966-0.001-0.014-0.325-0.113-0.651-0.209l-0.321-0.081-0.22-0.058-0.112-0.6c-0.141-0.661-0.222-1.421-0.222-2.199 0-0.066 0.001-0.131 0.002-0.197l-0 0.010c0-0.95 0.046-1.446 0.22-2.388 0.106-0.566 0.12-0.602 0.252-0.632 0.078-0.018 0.478-0.136 0.888-0.262 1.020-0.314 1.976-0.57 2.96-0.792 1.434-0.32 1.304-0.338 1.256 0.168zM26.316 19.362c-0.642 0.204-0.88 0.412-3.71 3.242-2.896 2.896-2.9 2.9-3.056 3.596-0.146 0.648-0.31 2.068-0.286 2.458 0.020 0.451 0.22 0.852 0.531 1.135l0.001 0.001c0.548 0.524 0.966 0.586 2.52 0.368 1.074-0.15 1.45-0.252 1.83-0.5 0.132-0.086 1.402-1.316 2.824-2.736 2.75-2.744 3.010-3.044 3.216-3.708 0.070-0.226 0.11-0.485 0.11-0.754 0-0.541-0.163-1.045-0.442-1.464l0.006 0.010c-0.358-0.505-0.781-0.934-1.264-1.287l-0.016-0.011c-0.424-0.287-0.946-0.457-1.508-0.457-0.269 0-0.53 0.039-0.775 0.112l0.019-0.005zM27.402 21.328c0.378 0.192 0.918 0.854 0.918 1.124 0 0.184-0.188 0.492-0.466 0.762l-0.26 0.256-0.318-0.206c-0.4-0.262-0.731-0.594-0.984-0.981l-0.008-0.013-0.206-0.318 0.254-0.26c0.28-0.286 0.56-0.46 0.75-0.462 0.119 0.012 0.227 0.047 0.324 0.1l-0.004-0.002zM5.888 21.598c1.052 0.276 2.246 0.548 3.054 0.694l0.648 0.118 0.090 0.514c0.142 0.808 0.428 2.082 0.7 3.116 0.138 0.522 0.234 0.964 0.212 0.986-0.102 0.102-1.6-0.822-2.422-1.492-1.186-0.993-2.174-2.173-2.931-3.503l-0.033-0.063c-0.254-0.474-0.29-0.582-0.184-0.582 0.034 0 0.424 0.096 0.866 0.212zM24.77 23.582c0.15 0.256 0.8 0.918 1.096 1.12 0.101 0.060 0.188 0.128 0.266 0.206v0c0 0.014-0.7 0.728-1.558 1.584l-1.56 1.56-0.868 0.124c-0.24 0.044-0.543 0.082-0.85 0.106l-0.034 0.002c0.026-0.341 0.064-0.644 0.116-0.942l-0.008 0.058 0.124-0.866 1.56-1.56c0.858-0.858 1.572-1.56 1.588-1.56s0.072 0.074 0.128 0.168z"></path>
</symbol>
<symbol id="icon-instagram" viewBox="0 0 32 32">
<path d="M11.173 1.687c-0.205 0.009-0.673 0.043-1.040 0.073-4.992 0.424-7.635 2.835-8.289 7.561-0.151 1.083-0.188 2.433-0.188 6.679 0 6.005 0.080 7.031 0.691 8.867 1.029 3.084 3.261 4.768 7.023 5.296 1.012 0.141 2.5 0.183 6.631 0.183s5.619-0.041 6.631-0.183c3.293-0.463 5.364-1.779 6.565-4.176 0.643-1.28 0.988-2.828 1.097-4.911 0.068-1.292 0.068-8.86 0-10.152-0.084-1.593-0.265-2.669-0.637-3.783-0.967-2.891-3.011-4.564-6.345-5.197-1.235-0.233-1.629-0.249-6.804-0.263-0.659-0.004-1.439-0.006-2.219-0.006-1.095 0-2.189 0.004-3.282 0.012l0.168-0.001zM22.4 3.805c3.715 0.616 5.219 2.133 5.797 5.848 0.088 0.561 0.096 1.099 0.096 6.347s-0.008 5.785-0.096 6.347c-0.296 1.904-0.836 3.187-1.717 4.080-0.912 0.925-2.172 1.465-4.133 1.771-0.561 0.088-1.1 0.096-6.347 0.096s-5.785-0.008-6.347-0.096c-3.727-0.58-5.275-2.123-5.848-5.824-0.092-0.593-0.099-1.055-0.099-6.373 0-6.337-0.005-6.217 0.352-7.616 0.684-2.675 2.237-4.019 5.221-4.517 0.973-0.164 1.451-0.175 6.987-0.164 5.017 0.009 5.629 0.019 6.133 0.103zM23.155 8.061c-0.829 0.239-1.213 1.207-0.775 1.955 0.501 0.856 1.787 0.84 2.296-0.027 0.129-0.22 0.151-0.312 0.149-0.656-0.001-0.463-0.077-0.641-0.408-0.963-0.234-0.223-0.552-0.36-0.902-0.36-0.129 0-0.253 0.019-0.37 0.053l0.009-0.002zM15.021 10.428c-0.868 0.164-1.781 0.563-2.421 1.055-0.404 0.312-1.056 1-1.308 1.381-0.322 0.495-0.584 1.068-0.758 1.678l-0.011 0.045c-0.128 0.477-0.143 0.625-0.143 1.413s0.015 0.936 0.143 1.412c0.54 1.989 2.076 3.525 4.025 4.055l0.040 0.009c0.475 0.128 0.627 0.143 1.412 0.143s0.937-0.015 1.412-0.143c1.99-0.539 3.525-2.074 4.055-4.024l0.009-0.040c0.128-0.475 0.143-0.627 0.143-1.412s-0.015-0.937-0.143-1.412c-0.172-0.641-0.571-1.475-0.931-1.948-0.332-0.436-1.011-1.084-1.415-1.352-0.498-0.321-1.075-0.582-1.689-0.752l-0.044-0.011c-0.661-0.172-1.745-0.216-2.376-0.097zM16.96 12.451c0.989 0.268 1.888 1.025 2.344 1.976 0.273 0.569 0.348 0.904 0.348 1.573s-0.075 1.004-0.348 1.573c-0.359 0.769-0.963 1.373-1.709 1.724l-0.022 0.009c-1.252 0.615-2.755 0.44-3.88-0.452-0.571-0.452-1.099-1.283-1.273-2.001-0.092-0.377-0.092-1.329 0-1.707 0.107-0.44 0.447-1.105 0.757-1.48 0.493-0.599 1.293-1.099 1.969-1.233 0.161-0.032 0.341-0.071 0.4-0.084 0.196-0.045 1.116 0.021 1.413 0.101z"></path>
</symbol>
<symbol id="icon-map" viewBox="0 0 32 32">
<path d="M10.613 3.549c-0.189 0.044-0.489 0.147-0.667 0.229-0.399 0.187-5.865 3.312-6.267 3.583-0.721 0.487-1.376 1.496-1.547 2.383-0.041 0.22-0.053 2.371-0.041 7.456 0.020 7.968-0.012 7.304 0.391 8.176 0.38 0.824 1.045 1.423 1.864 1.677 0.287 0.089 0.504 0.116 0.933 0.115 1.035-0.003 1.363-0.135 3.873-1.56 1.512-0.859 1.74-0.971 2.035-1.012 0.659-0.089 0.605-0.112 4.631 1.899 4.261 2.129 4.104 2.068 5.239 2.025 0.487-0.019 0.775-0.057 1.027-0.139 0.331-0.107 5.873-3.22 6.544-3.676 0.747-0.508 1.337-1.36 1.597-2.305 0.088-0.324 0.095-0.795 0.095-7.36 0-6.453-0.008-7.048-0.092-7.441-0.233-1.076-0.739-1.847-1.551-2.361-0.879-0.556-2.155-0.552-3.365 0.009-0.208 0.096-1.063 0.567-1.899 1.047-1.981 1.135-1.972 1.131-2.549 1.131h-0.463l-3.76-1.871c-2.069-1.029-3.893-1.911-4.055-1.957-0.415-0.123-1.527-0.148-1.973-0.047zM15.945 7.439c1.908 0.952 3.6 1.771 3.761 1.817l0.293 0.085v8.503c0 4.676-0.015 8.503-0.033 8.503s-1.608-0.793-3.533-1.763c-1.925-0.968-3.608-1.793-3.74-1.832l-0.24-0.069-0.013-8.488c-0.008-4.668-0.003-8.488 0.012-8.488 0.013 0 1.585 0.78 3.493 1.732zM10.387 14.272l-0.013 8.46-0.269 0.1c-0.148 0.056-1.071 0.557-2.051 1.115-0.979 0.557-1.913 1.064-2.076 1.127-0.191 0.070-0.412 0.112-0.642 0.116l-0.002 0c-0.595 0.005-0.937-0.259-1.16-0.895-0.087-0.251-0.093-0.729-0.093-7.281v-7.013l0.177-0.325c0.097-0.18 0.265-0.412 0.373-0.516 0.165-0.161 5.611-3.337 5.729-3.343 0.023-0.001 0.035 3.804 0.027 8.456zM27.651 6.951c0.142 0.088 0.261 0.198 0.356 0.326l0.002 0.003c0.324 0.465 0.313 0.193 0.297 7.791l-0.013 6.929-0.156 0.317c-0.105 0.204-0.231 0.379-0.377 0.534l0.001-0.001c-0.143 0.14-1.139 0.74-2.831 1.707-6.373 3.442-7.282 3.969-8.191 4.499l5.407-2.907-0.173 0.101v-16.956l0.253-0.095c0.139-0.052 1.072-0.559 2.072-1.125 0.336-0.21 0.982-0.574 1.634-0.926l0.339-0.168c0.555-0.224 1.007-0.233 1.379-0.031z"></path>
</symbol>
<symbol id="icon-maximize-circle" viewBox="0 0 32 32">
<path d="M15.414 1.69c-3.052 0.134-5.832 1.198-8.089 2.914l0.035-0.026c-0.804 0.602-2.184 1.984-2.792 2.796-1.65 2.156-2.7 4.85-2.858 7.78l-0.002 0.036c-0.090 1.58 0.128 3.646 0.43 4.070 0.33 0.464 1.074 0.514 1.488 0.1 0.3-0.3 0.338-0.534 0.21-1.28-0.138-0.802-0.194-2.584-0.106-3.36 0.282-2.483 1.249-4.699 2.705-6.504l-0.019 0.024c0.642-0.741 1.326-1.407 2.063-2.013l0.029-0.023c1.412-1.068 3.196-1.9 4.828-2.25 0.809-0.174 1.738-0.274 2.691-0.274 0.834 0 1.65 0.077 2.441 0.223l-0.082-0.013c0.438 0.084 0.762-0.008 1.038-0.298 0.162-0.171 0.261-0.402 0.261-0.656 0-0.294-0.133-0.557-0.341-0.732l-0.001-0.001c-0.224-0.198-0.378-0.244-1.178-0.362-0.546-0.080-2.058-0.194-2.298-0.174l-0.452 0.024zM22.434 3.046c-0.468 0.11-0.746 0.468-0.746 0.964 0 0.26 0.028 0.35 0.156 0.534 0.302 0.426 0.37 0.44 2.152 0.46l1.568 0.016-3.202 3.21c-1.762 1.766-3.234 3.27-3.272 3.344-0.043 0.12-0.068 0.258-0.068 0.402 0 0.011 0 0.021 0 0.032l-0-0.002c0 0.658 0.552 1.082 1.23 0.942 0.246-0.050 0.368-0.166 3.492-3.282l3.236-3.23 0.016 1.596c0.016 1.56 0.020 1.598 0.142 1.794 0.476 0.766 1.63 0.59 1.816-0.276 0.040-0.18 0.060-1.21 0.060-2.994 0-2.334-0.012-2.748-0.084-2.916-0.097-0.25-0.285-0.446-0.524-0.55l-0.006-0.002c-0.2-0.092-0.398-0.098-2.986-0.094-1.526 0.002-2.866 0.026-2.98 0.052zM28.78 12.386c-0.318 0.112-0.561 0.363-0.66 0.679l-0.002 0.007c-0.048 0.192-0.040 0.35 0.046 0.848 0.138 0.802 0.194 2.584 0.106 3.36-0.326 2.925-1.621 5.499-3.551 7.441l0.001-0.001c-2 1.998-4.6 3.242-7.426 3.548-0.772 0.084-2.52 0.040-3.24-0.082-0.906-0.154-1.158-0.116-1.478 0.222-0.162 0.171-0.261 0.403-0.261 0.658s0.099 0.487 0.261 0.658l-0-0c0.222 0.234 0.38 0.294 1.088 0.408 0.7 0.121 1.505 0.19 2.327 0.19 3.258 0 6.262-1.085 8.671-2.914l-0.036 0.026c1.046-0.841 1.967-1.762 2.781-2.773l0.027-0.035c2.056-2.754 3.062-6.062 2.858-9.412-0.080-1.32-0.232-2.196-0.43-2.474-0.21-0.296-0.7-0.456-1.082-0.354zM11.734 19.052c-0.226 0.048-0.428 0.238-3.48 3.284l-3.24 3.236-0.002-1.44c-0.002-1.492-0.034-1.802-0.218-2.062-0.25-0.35-0.854-0.48-1.258-0.272-0.144 0.087-0.264 0.198-0.36 0.329l-0.002 0.003-0.16 0.226-0.018 2.862c-0.010 1.954 0.002 2.924 0.042 3.060 0.093 0.283 0.295 0.509 0.554 0.633l0.006 0.003c0.2 0.090 0.412 0.098 2.946 0.098 1.798 0 2.824-0.018 3.006-0.058 0.882-0.188 1.044-1.396 0.246-1.822-0.214-0.114-0.288-0.12-1.792-0.136l-1.568-0.016 3.23-3.238c3.116-3.122 3.232-3.244 3.282-3.49 0.162-0.78-0.43-1.364-1.214-1.2z"></path>
</symbol>
<symbol id="icon-menu" viewBox="0 0 32 32">
<path d="M4.452 8.832c-0.198 0.050-0.364 0.167-0.474 0.325l-0.002 0.003c-0.122 0.156-0.196 0.355-0.196 0.571 0 0.44 0.306 0.809 0.717 0.905l0.006 0.001c0.367 0.077 22.628 0.077 22.995 0 0.828-0.179 0.983-1.331 0.233-1.739-0.151-0.083-0.815-0.088-11.656-0.096-6.323-0.006-11.552 0.008-11.624 0.030zM4.472 15.106c-0.593 0.143-0.892 0.892-0.557 1.4 0.090 0.124 0.197 0.229 0.319 0.313l0.004 0.003 0.19 0.119h23.157l0.215-0.151c0.251-0.171 0.414-0.456 0.414-0.778s-0.163-0.607-0.41-0.776l-0.003-0.002-0.215-0.151-11.477-0.008c-6.313-0.004-11.55 0.009-11.637 0.030zM4.463 21.393c-0.454 0.102-0.77 0.632-0.663 1.111 0.075 0.265 0.242 0.484 0.464 0.622l0.005 0.003c0.152 0.083 0.809 0.087 11.731 0.087s11.578-0.004 11.731-0.087c0.749-0.41 0.595-1.562-0.233-1.739-0.337-0.073-22.711-0.070-23.034 0.004z"></path>
</symbol>
<symbol id="icon-minus" viewBox="0 0 32 32">
<path d="M7.639 15.235c-0.29 0.137-0.486 0.427-0.486 0.763 0 0.216 0.082 0.414 0.216 0.563l-0.001-0.001c0.096 0.105 0.216 0.188 0.35 0.24l0.006 0.002c0.135 0.039 2.745 0.051 8.392 0.040 8.182-0.016 8.195-0.016 8.343-0.126 0.233-0.174 0.35-0.366 0.378-0.618 0.005-0.032 0.007-0.070 0.007-0.108 0-0.273-0.134-0.514-0.34-0.662l-0.002-0.002-0.201-0.153-8.245-0.013c-7.509-0.011-8.259-0.005-8.418 0.074z"></path>
</symbol>
<symbol id="icon-ranking" viewBox="0 0 32 32">
<path d="M15.316 1.39c-0.452 0.226-0.66 0.486-1.156 1.44l-0.426 0.822-0.694 0.116c-0.363 0.057-0.674 0.126-0.977 0.212l0.057-0.014c-0.738 0.268-1.208 0.976-1.11 1.676 0.064 0.466 0.308 0.862 0.932 1.516l0.582 0.61-0.154 0.688c-0.188 0.832-0.198 1.242-0.044 1.656 0.232 0.618 0.742 0.98 1.384 0.98 0.498 0.002 0.782-0.1 1.57-0.562l0.694-0.404 0.212 0.108c0.118 0.060 0.442 0.242 0.72 0.406 0.602 0.352 0.912 0.454 1.386 0.454 0.602 0 1.092-0.328 1.354-0.904 0.166-0.366 0.152-0.986-0.040-1.806l-0.152-0.656 0.612-0.626c0.658-0.67 0.792-0.876 0.892-1.356 0.020-0.091 0.031-0.196 0.031-0.303 0-0.305-0.092-0.589-0.251-0.824l0.003 0.005c-0.31-0.468-0.728-0.69-1.588-0.842-0.727-0.113-0.978-0.159-1.229-0.205l0.488 0.075c-0.162-0.028-0.198-0.082-0.584-0.84-0.624-1.234-1.034-1.586-1.858-1.586-0.012-0-0.027-0.001-0.041-0.001-0.226 0-0.438 0.061-0.621 0.168l0.006-0.003zM16.314 4.24c0.534 1.040 0.786 1.212 2.102 1.438l0.204 0.034-0.426 0.45c-0.702 0.742-0.856 1.238-0.658 2.118 0.058 0.256 0.096 0.466 0.086 0.466-0.012 0-0.23-0.12-0.488-0.268-0.54-0.308-0.73-0.37-1.134-0.37-0.408 0-0.63 0.072-1.158 0.376-0.132 0.083-0.287 0.167-0.447 0.24l-0.025 0.010c0.022-0.189 0.053-0.357 0.094-0.521l-0.006 0.027c0.186-0.87 0.036-1.34-0.658-2.038-0.238-0.242-0.424-0.45-0.41-0.464 0.014-0.012 0.252-0.064 0.53-0.112 0.6-0.104 1.042-0.318 1.312-0.634 0.102-0.12 0.31-0.462 0.464-0.764 0.099-0.213 0.201-0.393 0.314-0.564l-0.010 0.016c0.014 0.002 0.156 0.252 0.314 0.56zM13.728 12.376c-0.762 0.094-1.464 0.44-2.052 1.010-0.454 0.444-0.76 0.92-0.94 1.464-0.132 0.402-0.144 0.506-0.164 1.612l-0.022 1.184-2.916 0.022c-3.238 0.024-3.154 0.016-3.954 0.402-0.308 0.15-0.512 0.304-0.886 0.676-0.552 0.548-0.804 0.954-0.99 1.6l-0.124 0.428v8.87l0.16 0.226c0.101 0.137 0.225 0.25 0.368 0.335l0.006 0.003 0.212 0.112 13.414 0.014c9.626 0.010 13.494-0.002 13.698-0.044 0.195-0.033 0.363-0.128 0.487-0.263l0.001-0.001c0.32-0.318 0.334-0.466 0.308-3.058-0.022-2.13-0.030-2.268-0.142-2.648-0.186-0.626-0.442-1.036-0.986-1.574-0.374-0.372-0.578-0.526-0.886-0.676-0.8-0.386-0.714-0.378-3.96-0.402l-2.92-0.022v-2.986c0-3.366-0.012-3.496-0.372-4.234-0.459-0.94-1.276-1.645-2.27-1.943l-0.026-0.007c-0.378-0.114-0.504-0.12-2.532-0.134-0.201-0.003-0.439-0.005-0.677-0.005-0.645 0-1.288 0.014-1.926 0.043l0.091-0.003zM18.55 14.53c0.574 0.318 0.846 0.798 0.898 1.584 0.018 0.274 0.014 3.134-0.008 6.352l-0.040 5.854h-6.814l-0.012-4.866c-0.024-8.41-0.032-7.818 0.1-8.1 0.18-0.375 0.474-0.671 0.835-0.851l0.011-0.005 0.32-0.154 4.426 0.030 0.284 0.156zM10.56 24v4.32h-6.88v-3.652c0-4.2-0.022-3.99 0.488-4.5 0.494-0.494 0.398-0.482 3.606-0.486l2.786-0.002v4.32zM27.272 23.788c0.423 0.186 0.754 0.517 0.935 0.928l0.005 0.012c0.1 0.268 0.108 0.412 0.108 1.94v1.652h-6.88v-4.64h2.772c2.654 0 2.782 0.004 3.060 0.108z"></path>
</symbol>
<symbol id="icon-logo" viewBox="0 0 55 32">
<path fill="#173d33" style="fill: var(--color1, #173d33)" d="M37.919 22.773c-0.115-0.273-9.583-18.774-9.738-19.029-0.327-0.772-0.812-1.47-1.425-2.049s-1.34-1.028-2.136-1.317c-0.796-0.29-1.644-0.414-2.492-0.366s-1.675 0.268-2.433 0.646c-0.757 0.378-1.427 0.906-1.968 1.55s-0.942 1.392-1.177 2.197-0.299 1.647-0.189 2.477c0.11 0.83 0.393 1.628 0.83 2.345 0.115 0.273 9.177 17.981 9.332 18.236 0.116 0.274 0.251 0.539 0.406 0.793 0.327 0.772 0.812 1.47 1.425 2.049s1.34 1.028 2.136 1.317 1.644 0.414 2.492 0.366c0.847-0.048 1.675-0.268 2.433-0.646s1.427-0.906 1.968-1.55c0.541-0.645 0.942-1.393 1.177-2.197s0.299-1.647 0.189-2.477c-0.11-0.83-0.393-1.628-0.83-2.345z"></path>
<path fill="#97d28b" style="fill: var(--color2, #97d28b)" d="M26.985 10.254c0.58-0.61 1.027-1.331 1.312-2.119s0.402-1.625 0.345-2.46c-0.058-0.835-0.289-1.648-0.68-2.391s-0.933-1.397-1.592-1.924c-0.659-0.527-1.421-0.914-2.239-1.137s-1.673-0.278-2.513-0.161c-0.84 0.117-1.646 0.404-2.369 0.842s-1.346 1.019-1.831 1.705c-0.204 0.214-15.577 18.897-15.748 19.139-0.58 0.61-1.027 1.331-1.312 2.119s-0.403 1.625-0.345 2.46c0.058 0.835 0.289 1.649 0.68 2.391s0.933 1.398 1.592 1.924c0.659 0.527 1.421 0.914 2.239 1.137s1.673 0.278 2.513 0.161c0.84-0.117 1.646-0.404 2.369-0.842s1.346-1.019 1.831-1.705c0.204-0.214 15.577-18.897 15.748-19.138z"></path>
<path fill="#97d28b" style="fill: var(--color2, #97d28b)" d="M53.439 10.254c0.58-0.61 1.027-1.331 1.312-2.119s0.403-1.625 0.345-2.46c-0.058-0.835-0.289-1.649-0.68-2.391s-0.933-1.397-1.592-1.924-1.421-0.914-2.239-1.137c-0.818-0.223-1.673-0.278-2.513-0.161s-1.646 0.404-2.369 0.842c-0.722 0.438-1.346 1.019-1.831 1.705-0.204 0.214-15.577 18.897-15.748 19.139-0.58 0.61-1.027 1.331-1.312 2.119s-0.402 1.625-0.345 2.46c0.058 0.835 0.289 1.649 0.68 2.391s0.933 1.398 1.592 1.924c0.659 0.527 1.421 0.914 2.239 1.137s1.673 0.278 2.513 0.161c0.84-0.117 1.646-0.404 2.369-0.842s1.346-1.019 1.831-1.705c0.204-0.214 15.577-18.897 15.748-19.138z"></path>
</symbol>
</defs>
</svg>
