<svg aria-hidden="true" style="position:absolute;width:0;height:0;overflow:hidden" xmlns="http://www.w3.org/2000/svg"><defs><symbol id="icon-sms" viewBox="0 0 32 32"><path d="M7.904 3.763c-1.279.164-2.473.589-3.372 1.199a7.381 7.381 0 0 0-1.443 1.395l-.012.016c-.579.78-1.028 1.876-1.236 3.015-.152.836-.185 2.027-.185 6.613s.033 5.777.185 6.613c.288 1.579.948 2.867 1.956 3.82 1.072 1.013 2.396 1.588 4.169 1.807.959.119 15.108.119 16.067 0 2.641-.327 4.491-1.548 5.487-3.625.467-.973.685-1.889.773-3.255.067-1.04.067-9.68 0-10.72-.088-1.365-.307-2.281-.773-3.255-.993-2.071-2.827-3.283-5.483-3.624-.539-.069-1.709-.08-8.107-.076-5.863.005-7.596.021-8.027.077zm15.712 1.946c2.719.295 4.239 1.701 4.62 4.276.125.84.125 11.189 0 12.029-.357 2.415-1.687 3.784-4.081 4.208-.521.092-1.019.097-8.155.097s-7.633-.005-8.155-.097c-2.395-.424-3.723-1.793-4.081-4.208-.125-.84-.125-11.189 0-12.029.376-2.537 1.9-3.973 4.529-4.269.624-.071 14.679-.076 15.323-.007zM9.047 11.051a1.105 1.105 0 0 0-.405.255.979.979 0 0 0-.061 1.33l-.001-.001c.283.328 4.597 3.721 5.015 3.943.695.371 1.233.501 2.195.531.649.02.924.005 1.28-.067.597-.12 1.176-.347 1.601-.625.496-.327 4.717-3.699 4.815-3.847.375-.572.08-1.357-.569-1.52-.483-.121-.504-.108-2.944 1.835-1.231.981-2.372 1.855-2.536 1.943-.4.213-.883.32-1.453.32l-.08.001a2.92 2.92 0 0 1-1.375-.341l.016.008c-.169-.091-1.297-.956-2.507-1.921-1.208-.967-2.248-1.776-2.311-1.801a1.138 1.138 0 0 0-.687-.038l.008-.002z"/></symbol><symbol id="icon-arrow" viewBox="0 0 32 32"><path d="M18.635 7.558a.842.842 0 0 0-.431.442l-.002.006a.848.848 0 0 0 .004.758l-.002-.005c.064.137 1.079 1.184 3.136 3.238l3.044 3.038-9.651.024c-8.872.023-9.662.032-9.801.109a.948.948 0 0 0-.527.845c0 .354.188.657.527.845.139.075.93.085 9.801.107l9.651.026-3.044 3.036c-2.057 2.056-3.072 3.102-3.136 3.238a.9.9 0 0 0 .28 1.107l.002.002c.154.117.248.147.52.162.301.015.352.004.557-.136.378-.252 7.864-7.782 7.955-7.998a1.099 1.099 0 0 0 .022-.735l.002.008c-.058-.158-7.878-8.013-8.088-8.124-.179-.096-.631-.092-.819.006z"/></symbol><symbol id="icon-call" viewBox="0 0 32 32"><path d="M6.933 1.712a4.908 4.908 0 0 0-2.345.98l.011-.008c-.788.608-1.711 1.721-2.141 2.581-.965 1.933-1.025 4.433-.167 7.055 1.725 5.269 7.444 11.871 13.428 15.5.967.587 2.508 1.352 3.401 1.689 2.407.911 4.755 1.051 6.665.399 1.792-.611 3.3-1.951 4.075-3.62.784-1.692.457-3.448-.829-4.459-.553-.435-4.692-3.34-5.061-3.553-.62-.357-1.165-.524-1.727-.528-1.005-.008-1.655.335-2.845 1.5l-.735.72-.172-.099c-1.507-.863-5.143-4.448-6.264-6.177l-.235-.361.675-.705c1.541-1.615 1.867-2.616 1.304-4.025-.22-.548-.241-.583-2.155-3.293-.956-1.355-1.792-2.483-1.977-2.669-.701-.704-1.797-1.053-2.907-.925zm1.151 2.105c.169.08.368.231.475.36.443.537 3.301 4.633 3.476 4.981.364.727.261.972-.927 2.211-.449.468-.863.941-.92 1.053-.239.468-.232 1.189.015 1.729.673 1.469 4.313 5.344 6.483 6.899 1.077.773 1.655.992 2.319.877.492-.084.644-.181 1.343-.86.863-.836 1.163-1.092 1.435-1.22.343-.161.584-.145 1.02.065.425.204 4.993 3.421 5.204 3.664.292.336.359 1.035.156 1.623-.343.987-1.347 2.057-2.428 2.587-.723.355-1.307.485-2.293.517a8.194 8.194 0 0 1-2.824-.382l.058.016c-3.791-1.125-8.737-4.839-12.387-9.299-2.403-2.935-3.972-5.84-4.456-8.243-.164-.82-.177-2.356-.025-3.007a6.313 6.313 0 0 1 .777-1.828l-.015.026c.323-.485 1.019-1.193 1.435-1.459.721-.463 1.516-.581 2.083-.313z"/></symbol><symbol id="icon-cpu-charge" viewBox="0 0 32 32"><path d="M10.586 1.68a2.16 2.16 0 0 1-.18.047l-.018.003c-.178.038-.5.312-.604.516-.06.116-.078.396-.078 1.274 0 .852-.016 1.128-.066 1.142-1.228.36-1.74.576-2.418 1.018a5.725 5.725 0 0 0-1.983 2.307l-.015.035a7.654 7.654 0 0 0-.494 1.383l-.012.055-.034.184-1.13.018c-1.288.02-1.424.058-1.71.462a.958.958 0 0 0 .002 1.089l-.002-.003c.278.392.44.44 1.564.462l.98.018-.034.484a33.986 33.986 0 0 0-.034 1.642v1.16l-.946.018c-1.086.022-1.254.072-1.53.462-.13.186-.156.272-.156.544s.026.358.156.544c.276.39.444.44 1.53.462l.946.018v1.16c0 .638.016 1.376.034 1.642l.034.484-.98.018c-1.124.022-1.286.07-1.564.462-.13.184-.156.272-.156.544 0 .27.026.358.156.542.286.404.422.442 1.71.462l1.13.018.034.184c.018.102.096.37.17.596.712 2.146 2.12 3.466 4.366 4.09l.426.118.026 1.168c.026 1.086.036 1.182.144 1.356a1.014 1.014 0 0 0 1.548.15c.244-.262.282-.46.282-1.464v-.944l.52.036c.286.018 1.042.034 1.68.034h1.16v.968c0 .928.006.978.128 1.188.32.546 1.134.642 1.562.182.244-.26.284-.462.284-1.43v-.908h1.132c.624 0 1.366-.016 1.648-.034l.516-.034.018 1.006c.018.946.026 1.022.142 1.208.476.766 1.632.59 1.818-.276.032-.152.058-.716.058-1.254v-.978l.19-.034a8.236 8.236 0 0 0 1.492-.529l-.05.021a5.777 5.777 0 0 0 2.723-2.629l.015-.033c.18-.356.588-1.516.59-1.674 0-.086.084-.094.984-.094.542 0 1.108-.026 1.26-.058a.981.981 0 0 0 .475-1.648c-.266-.266-.53-.32-1.584-.32h-.832l.036-.52c.018-.286.034-1.03.034-1.654v-1.132h.798c.438 0 .92-.028 1.072-.06.88-.188 1.044-1.398.246-1.82-.2-.106-.32-.12-1.17-.138l-.946-.02v-1.128c0-.62-.016-1.362-.034-1.648l-.036-.52h.832c.458 0 .956-.026 1.108-.058.88-.19 1.044-1.398.246-1.822-.206-.11-.308-.12-1.35-.138l-1.13-.018-.034-.184a7.96 7.96 0 0 0-.527-1.487l.021.049a5.8 5.8 0 0 0-2.81-2.805l-.036-.015c-.406-.184-1.364-.508-1.504-.508-.068 0-.08-.152-.08-1-.002-1.378-.082-1.65-.548-1.888a.997.997 0 0 0-1.29.321l-.002.003-.16.226-.036 2.032-.484-.034a32.675 32.675 0 0 0-1.528-.034h-.126.007-1.164l-.002-.814c-.002-1.176-.096-1.47-.546-1.7a.997.997 0 0 0-1.29.321l-.002.003-.16.226-.02.982-.018.982h-1.16c-.638 0-1.38.016-1.648.034l-.488.036v-.944c0-1.024-.038-1.206-.304-1.484-.16-.168-.624-.332-.79-.282zm10.668 4.788c.788.144 1.406.342 1.998.638.782.39 1.252.86 1.642 1.642.3.602.496 1.22.642 2.024.082.454.09 1.004.09 5.228s-.008 4.774-.09 5.228c-.238 1.314-.672 2.32-1.264 2.928-.201.204-.42.388-.655.552l-.015.01c-.69.438-1.72.748-2.92.878-.698.078-8.666.078-9.364 0-1.698-.184-2.928-.69-3.662-1.5-.354-.392-.776-1.214-.964-1.882-.322-1.14-.318-1.062-.318-6.214 0-4.224.008-4.774.09-5.228.146-.804.342-1.422.642-2.024.226-.456.35-.63.68-.96.748-.744 1.942-1.218 3.494-1.384.234-.026 2.466-.042 4.96-.036 3.968.01 4.594.022 5.014.1zM13.21 8.376c-2.164.156-3.618 1.01-4.306 2.53a7.21 7.21 0 0 0-.483 1.774l-.005.04c-.098.68-.098 5.886 0 6.56.386 2.654 1.65 3.918 4.304 4.304.678.098 5.882.098 6.56 0 2.654-.386 3.918-1.65 4.304-4.304.098-.678.098-5.882 0-6.56-.308-2.116-1.166-3.308-2.848-3.956-.48-.186-1.258-.332-2.054-.39-.842-.06-4.612-.058-5.472.002zm6.424 2.116c.86.24 1.344.606 1.642 1.24.344.73.35.816.35 4.268 0 3.476-.006 3.55-.368 4.298-.306.634-.744.962-1.62 1.21-.402.116-.48.118-3.638.118s-3.236-.002-3.638-.118c-.876-.248-1.314-.576-1.62-1.21-.362-.748-.368-.822-.368-4.298 0-2.8.01-3.162.094-3.522.292-1.242.908-1.806 2.244-2.054.294-.054 1.09-.068 3.448-.058 2.954.01 3.082.016 3.474.126zm-4.06 1.558a1.424 1.424 0 0 0-.304.224c-.134.146-1.302 2.172-1.498 2.598a1.472 1.472 0 0 0 .277 1.648c.294.326.626.444 1.346.48.334.016.606.038.606.048s-.214.396-.476.858a7.464 7.464 0 0 0-.491.959l-.019.051c-.078.382.216.898.6 1.06a.978.978 0 0 0 1.088-.222c.154-.166 1.31-2.154 1.526-2.626.32-.696.026-1.594-.63-1.928-.242-.124-.756-.212-1.238-.212l-.078.002c-.1 0-.198-.011-.291-.032l.009.002c0-.014.222-.414.492-.888.448-.788.49-.886.488-1.136a1.198 1.198 0 0 0-.091-.438l.003.008c-.25-.484-.866-.696-1.318-.456z"/></symbol><symbol id="icon-facebook" viewBox="0 0 32 32"><path d="M11.173 1.687c-.205.009-.673.043-1.04.073-4.992.424-7.635 2.835-8.289 7.561-.151 1.083-.188 2.433-.188 6.679 0 6.005.08 7.031.691 8.867 1.029 3.084 3.261 4.768 7.023 5.296 1.012.141 2.5.183 6.631.183s5.619-.041 6.631-.183c3.293-.463 5.364-1.779 6.565-4.176.643-1.28.988-2.828 1.097-4.911.068-1.292.068-8.86 0-10.152-.084-1.593-.265-2.669-.637-3.783-.967-2.891-3.011-4.564-6.345-5.197-1.235-.233-1.629-.249-6.804-.263a448.414 448.414 0 0 0-5.501.006l.168-.001zM22.4 3.805c3.715.616 5.219 2.133 5.797 5.848.088.561.096 1.099.096 6.347s-.008 5.785-.096 6.347c-.579 3.719-2.116 5.267-5.797 5.843-.381.06-1.067.096-2.147.116l-1.587.028v-8.703l1.545-.015c1.521-.016 1.547-.017 1.665-.136.097-.097.172-.369.396-1.439.252-1.195.271-1.336.207-1.489a.54.54 0 0 0-.177-.227l-.001-.001c-.071-.037-.709-.057-1.871-.057h-1.764V14.24c0-1.956.004-2.031.107-2.133S18.95 12 20.666 12s1.791-.004 1.893-.107.107-.177.107-1.893c0-1.735-.003-1.789-.111-1.897s-.143-.109-2.36-.089c-2.148.019-2.267.025-2.648.14a4 4 0 0 0-2.666 2.527l-.008.028-.18.519-.016 2.6-.017 2.6h-1.247c-1.228 0-1.248.001-1.331.119-.069.1-.083.34-.083 1.547 0 1.357.005 1.433.107 1.535.1.1.177.107 1.333.107h1.227v8.597l-2.253-.025c-1.756-.019-2.377-.044-2.813-.113-3.687-.591-5.225-2.135-5.795-5.819-.092-.593-.099-1.055-.099-6.373 0-6.337-.005-6.217.352-7.616.684-2.675 2.237-4.019 5.221-4.517.973-.164 1.451-.175 6.987-.164 5.017.009 5.629.019 6.133.103z"/></symbol><symbol id="icon-global-edit" viewBox="0 0 32 32"><path d="M15.414 1.688a14.352 14.352 0 0 0-8.089 2.916l.035-.026c-.804.602-2.184 1.984-2.792 2.796a14.126 14.126 0 0 0-2.885 8.589c0 .299.009.597.027.891l-.002-.04a14.119 14.119 0 0 0 2.883 7.846l-.025-.034a18.142 18.142 0 0 0 2.773 2.781l.035.027a14.322 14.322 0 0 0 6.337 2.711l.083.011c.8.124 2.126.194 2.438.128.864-.184 1.02-1.41.232-1.812-.18-.092-.37-.122-1.022-.156a11.776 11.776 0 0 1-2.069-.256l.077.014c-.4-.082-.488-.132-.49-.28 0-.04-.106-.412-.236-.826-.402-1.282-.884-3.188-1.018-4.03l-.038-.234.366.036c1.736.17 4.04.244 4.322.136.367-.154.62-.51.62-.925v-.012.001c0-.328-.116-.552-.406-.786l-.202-.164-1.53-.064c-1.756-.076-3.37-.218-3.458-.306-.088-.086-.224-1.54-.298-3.194a28.523 28.523 0 0 1 .003-2.923l-.003.069c.056-1.266.18-2.826.25-3.136.024-.102.094-.118.974-.202a36.585 36.585 0 0 1 7.546.014l-.158-.014c.88.084.95.1.972.202.072.334.19 1.898.242 3.18.032.804.07 1.542.084 1.638.03.204.286.514.522.636.128.052.277.082.433.082.154 0 .301-.029.435-.083l-.008.003c.22-.122.394-.306.499-.529l.003-.007c.108-.282.034-2.586-.136-4.322l-.036-.366.234.038c.822.132 2.704.604 4.022 1.012.41.126.81.244.886.262.126.028.146.072.224.472.158.81.204 1.182.246 2.024.038.722.058.86.16 1.026.464.748 1.628.574 1.808-.27.066-.312-.004-1.638-.128-2.438a14.409 14.409 0 0 0-2.75-6.456l.026.036c-.608-.812-1.988-2.194-2.792-2.796a14.195 14.195 0 0 0-6.815-2.779l-.071-.007a17.361 17.361 0 0 0-2.359-.104h.019zm1.92 2.046c.25.03.722.106 1.054.166.566.106.602.12.632.252.018.078.136.478.262.888.384 1.25.84 3.062 1.016 4.048l.038.208-1.482-.136c-.91-.084-4.798-.084-5.708 0l-1.478.136.038-.234c.132-.822.604-2.704 1.012-4.022.126-.41.244-.81.262-.888.03-.132.066-.146.632-.252.332-.062.77-.134.974-.16.424-.033.918-.052 1.416-.052.469 0 .933.017 1.394.049l-.062-.004zm4.582 1.446c1.654.884 3.268 2.374 4.418 4.078.252.376.782 1.35.75 1.382a6.454 6.454 0 0 1-.839-.203l.047.013a36.557 36.557 0 0 0-2.94-.695l-.294-.049-.65-.12-.116-.646c-.182-1.002-.792-3.568-.942-3.958-.044-.116.016-.096.566.198zm-11.304-.154c0 .038-.096.428-.216.868a36.888 36.888 0 0 0-.668 2.884l-.048.296-.09.514-.648.118c-.834.152-2.252.478-3.236.744a6.605 6.605 0 0 1-.746.181l-.046.007c.08-.209.166-.386.267-.554l-.009.016c.522-.978 1.114-1.772 1.998-2.68a11.66 11.66 0 0 1 2.746-2.15l.058-.03c.522-.288.64-.328.638-.214zm-1.356 7.068-.088.972a46.576 46.576 0 0 0-.084 2.232v.036c-.03 1.662.012 2.866.15 4.308.034.344.048.642.03.658-.078.078-2.698-.544-4.06-.966-.001-.014-.325-.113-.651-.209l-.321-.081-.22-.058-.112-.6a10.725 10.725 0 0 1-.222-2.199l.002-.197V16c0-.95.046-1.446.22-2.388.106-.566.12-.602.252-.632.078-.018.478-.136.888-.262A39.34 39.34 0 0 1 8 11.926c1.434-.32 1.304-.338 1.256.168zm17.06 7.268c-.642.204-.88.412-3.71 3.242-2.896 2.896-2.9 2.9-3.056 3.596-.146.648-.31 2.068-.286 2.458.02.451.22.852.531 1.135l.001.001c.548.524.966.586 2.52.368 1.074-.15 1.45-.252 1.83-.5.132-.086 1.402-1.316 2.824-2.736 2.75-2.744 3.01-3.044 3.216-3.708A2.634 2.634 0 0 0 29.854 21l.006.01a5.58 5.58 0 0 0-1.264-1.287l-.016-.011a2.688 2.688 0 0 0-1.508-.457c-.269 0-.53.039-.775.112l.019-.005zm1.086 1.966c.378.192.918.854.918 1.124 0 .184-.188.492-.466.762l-.26.256-.318-.206a3.382 3.382 0 0 1-.984-.981l-.008-.013-.206-.318.254-.26c.28-.286.56-.46.75-.462a.848.848 0 0 1 .324.1l-.004-.002zm-21.514.27c1.052.276 2.246.548 3.054.694l.648.118.09.514c.142.808.428 2.082.7 3.116.138.522.234.964.212.986-.102.102-1.6-.822-2.422-1.492a12.855 12.855 0 0 1-2.931-3.503l-.033-.063c-.254-.474-.29-.582-.184-.582.034 0 .424.096.866.212zm18.882 1.984c.15.256.8.918 1.096 1.12.101.06.188.128.266.206 0 .014-.7.728-1.558 1.584l-1.56 1.56-.868.124a8.67 8.67 0 0 1-.85.106l-.034.002c.026-.341.064-.644.116-.942l-.008.058.124-.866 1.56-1.56c.858-.858 1.572-1.56 1.588-1.56s.072.074.128.168z"/></symbol><symbol id="icon-instagram" viewBox="0 0 32 32"><path d="M11.173 1.687c-.205.009-.673.043-1.04.073-4.992.424-7.635 2.835-8.289 7.561-.151 1.083-.188 2.433-.188 6.679 0 6.005.08 7.031.691 8.867 1.029 3.084 3.261 4.768 7.023 5.296 1.012.141 2.5.183 6.631.183s5.619-.041 6.631-.183c3.293-.463 5.364-1.779 6.565-4.176.643-1.28.988-2.828 1.097-4.911.068-1.292.068-8.86 0-10.152-.084-1.593-.265-2.669-.637-3.783-.967-2.891-3.011-4.564-6.345-5.197-1.235-.233-1.629-.249-6.804-.263a448.414 448.414 0 0 0-5.501.006l.168-.001zM22.4 3.805c3.715.616 5.219 2.133 5.797 5.848.088.561.096 1.099.096 6.347s-.008 5.785-.096 6.347c-.296 1.904-.836 3.187-1.717 4.08-.912.925-2.172 1.465-4.133 1.771-.561.088-1.1.096-6.347.096s-5.785-.008-6.347-.096c-3.727-.58-5.275-2.123-5.848-5.824-.092-.593-.099-1.055-.099-6.373 0-6.337-.005-6.217.352-7.616.684-2.675 2.237-4.019 5.221-4.517.973-.164 1.451-.175 6.987-.164 5.017.009 5.629.019 6.133.103zm.755 4.256a1.336 1.336 0 0 0-.775 1.955c.501.856 1.787.84 2.296-.027.129-.22.151-.312.149-.656-.001-.463-.077-.641-.408-.963a1.303 1.303 0 0 0-1.272-.307l.009-.002zm-8.134 2.367c-.868.164-1.781.563-2.421 1.055-.404.312-1.056 1-1.308 1.381a6.234 6.234 0 0 0-.758 1.678l-.011.045c-.128.477-.143.625-.143 1.413s.015.936.143 1.412a5.746 5.746 0 0 0 4.025 4.055l.04.009c.475.128.627.143 1.412.143s.937-.015 1.412-.143a5.74 5.74 0 0 0 4.055-4.024l.009-.04c.128-.475.143-.627.143-1.412s-.015-.937-.143-1.412c-.172-.641-.571-1.475-.931-1.948-.332-.436-1.011-1.084-1.415-1.352a6.187 6.187 0 0 0-1.689-.752l-.044-.011c-.661-.172-1.745-.216-2.376-.097zm1.939 2.023c.989.268 1.888 1.025 2.344 1.976.273.569.348.904.348 1.573s-.075 1.004-.348 1.573a3.558 3.558 0 0 1-1.709 1.724l-.022.009c-1.252.615-2.755.44-3.88-.452-.571-.452-1.099-1.283-1.273-2.001-.092-.377-.092-1.329 0-1.707.107-.44.447-1.105.757-1.48.493-.599 1.293-1.099 1.969-1.233.161-.032.341-.071.4-.084.196-.045 1.116.021 1.413.101z"/></symbol><symbol id="icon-map" viewBox="0 0 32 32"><path d="M10.613 3.549a4.203 4.203 0 0 0-.667.229c-.399.187-5.865 3.312-6.267 3.583-.721.487-1.376 1.496-1.547 2.383-.041.22-.053 2.371-.041 7.456.02 7.968-.012 7.304.391 8.176.38.824 1.045 1.423 1.864 1.677.287.089.504.116.933.115 1.035-.003 1.363-.135 3.873-1.56 1.512-.859 1.74-.971 2.035-1.012.659-.089.605-.112 4.631 1.899 4.261 2.129 4.104 2.068 5.239 2.025.487-.019.775-.057 1.027-.139.331-.107 5.873-3.22 6.544-3.676.747-.508 1.337-1.36 1.597-2.305.088-.324.095-.795.095-7.36 0-6.453-.008-7.048-.092-7.441-.233-1.076-.739-1.847-1.551-2.361-.879-.556-2.155-.552-3.365.009-.208.096-1.063.567-1.899 1.047-1.981 1.135-1.972 1.131-2.549 1.131h-.463l-3.76-1.871c-2.069-1.029-3.893-1.911-4.055-1.957-.415-.123-1.527-.148-1.973-.047zm5.332 3.89c1.908.952 3.6 1.771 3.761 1.817l.293.085v8.503c0 4.676-.015 8.503-.033 8.503s-1.608-.793-3.533-1.763c-1.925-.968-3.608-1.793-3.74-1.832l-.24-.069-.013-8.488c-.008-4.668-.003-8.488.012-8.488.013 0 1.585.78 3.493 1.732zm-5.558 6.833-.013 8.46-.269.1c-.148.056-1.071.557-2.051 1.115-.979.557-1.913 1.064-2.076 1.127-.191.07-.412.112-.642.116h-.002c-.595.005-.937-.259-1.16-.895-.087-.251-.093-.729-.093-7.281v-7.013l.177-.325c.097-.18.265-.412.373-.516.165-.161 5.611-3.337 5.729-3.343.023-.001.035 3.804.027 8.456zm17.264-7.321c.142.088.261.198.356.326l.002.003c.324.465.313.193.297 7.791L28.293 22l-.156.317a2.317 2.317 0 0 1-.377.534l.001-.001c-.143.14-1.139.74-2.831 1.707-6.373 3.442-7.282 3.969-8.191 4.499l5.407-2.907-.173.101V9.294l.253-.095c.139-.052 1.072-.559 2.072-1.125.336-.21.982-.574 1.634-.926l.339-.168c.555-.224 1.007-.233 1.379-.031z"/></symbol><symbol id="icon-maximize-circle" viewBox="0 0 32 32"><path d="M15.414 1.69a14.343 14.343 0 0 0-8.089 2.914l.035-.026c-.804.602-2.184 1.984-2.792 2.796a14.041 14.041 0 0 0-2.858 7.78l-.002.036c-.09 1.58.128 3.646.43 4.07.33.464 1.074.514 1.488.1.3-.3.338-.534.21-1.28-.138-.802-.194-2.584-.106-3.36a12.551 12.551 0 0 1 2.705-6.504l-.019.024a17.023 17.023 0 0 1 2.063-2.013l.029-.023c1.412-1.068 3.196-1.9 4.828-2.25a13.44 13.44 0 0 1 5.132-.051l-.082-.013c.438.084.762-.008 1.038-.298a.955.955 0 0 0-.08-1.388l-.001-.001c-.224-.198-.378-.244-1.178-.362-.546-.08-2.058-.194-2.298-.174l-.452.024zm7.02 1.356c-.468.11-.746.468-.746.964 0 .26.028.35.156.534.302.426.37.44 2.152.46l1.568.016-3.202 3.21c-1.762 1.766-3.234 3.27-3.272 3.344-.043.12-.068.258-.068.402v.032-.002c0 .658.552 1.082 1.23.942.246-.05.368-.166 3.492-3.282l3.236-3.23.016 1.596c.016 1.56.02 1.598.142 1.794.476.766 1.63.59 1.816-.276.04-.18.06-1.21.06-2.994 0-2.334-.012-2.748-.084-2.916a.983.983 0 0 0-.524-.55l-.006-.002c-.2-.092-.398-.098-2.986-.094-1.526.002-2.866.026-2.98.052zm6.346 9.34a1.055 1.055 0 0 0-.66.679l-.002.007c-.048.192-.04.35.046.848.138.802.194 2.584.106 3.36a12.458 12.458 0 0 1-3.551 7.441l.001-.001c-2 1.998-4.6 3.242-7.426 3.548-.772.084-2.52.04-3.24-.082-.906-.154-1.158-.116-1.478.222-.162.171-.261.403-.261.658s.099.487.261.658c.222.234.38.294 1.088.408.7.121 1.505.19 2.327.19 3.258 0 6.262-1.085 8.671-2.914l-.036.026a18.142 18.142 0 0 0 2.781-2.773l.027-.035c2.056-2.754 3.062-6.062 2.858-9.412-.08-1.32-.232-2.196-.43-2.474-.21-.296-.7-.456-1.082-.354zm-17.046 6.666c-.226.048-.428.238-3.48 3.284l-3.24 3.236-.002-1.44c-.002-1.492-.034-1.802-.218-2.062-.25-.35-.854-.48-1.258-.272a1.234 1.234 0 0 0-.36.329l-.002.003-.16.226-.018 2.862c-.01 1.954.002 2.924.042 3.06.093.283.295.509.554.633l.006.003c.2.09.412.098 2.946.098 1.798 0 2.824-.018 3.006-.058.882-.188 1.044-1.396.246-1.822-.214-.114-.288-.12-1.792-.136l-1.568-.016 3.23-3.238c3.116-3.122 3.232-3.244 3.282-3.49.162-.78-.43-1.364-1.214-1.2z"/></symbol><symbol id="icon-menu" viewBox="0 0 32 32"><path d="M4.452 8.832a.819.819 0 0 0-.474.325l-.002.003a.93.93 0 0 0 .521 1.476l.006.001c.367.077 22.628.077 22.995 0 .828-.179.983-1.331.233-1.739-.151-.083-.815-.088-11.656-.096-6.323-.006-11.552.008-11.624.03zm.02 6.274c-.593.143-.892.892-.557 1.4.09.124.197.229.319.313l.004.003.19.119h23.157l.215-.151a.94.94 0 0 0 .004-1.554l-.003-.002-.215-.151-11.477-.008c-6.313-.004-11.55.009-11.637.03zm-.009 6.287c-.454.102-.77.632-.663 1.111.075.265.242.484.464.622l.005.003c.152.083.809.087 11.731.087s11.578-.004 11.731-.087c.749-.41.595-1.562-.233-1.739-.337-.073-22.711-.07-23.034.004z"/></symbol><symbol id="icon-minus" viewBox="0 0 32 32"><path d="M7.639 15.235a.842.842 0 0 0-.27 1.326l-.001-.001a.933.933 0 0 0 .35.24l.006.002c.135.039 2.745.051 8.392.04 8.182-.016 8.195-.016 8.343-.126.233-.174.35-.366.378-.618a.813.813 0 0 0-.333-.77l-.002-.002-.201-.153-8.245-.013c-7.509-.011-8.259-.005-8.418.074z"/></symbol><symbol id="icon-ranking" viewBox="0 0 32 32"><path d="M15.316 1.39c-.452.226-.66.486-1.156 1.44l-.426.822-.694.116a8.108 8.108 0 0 0-.977.212l.057-.014c-.738.268-1.208.976-1.11 1.676.064.466.308.862.932 1.516l.582.61-.154.688c-.188.832-.198 1.242-.044 1.656.232.618.742.98 1.384.98.498.002.782-.1 1.57-.562l.694-.404.212.108c.118.06.442.242.72.406.602.352.912.454 1.386.454.602 0 1.092-.328 1.354-.904.166-.366.152-.986-.04-1.806l-.152-.656.612-.626c.658-.67.792-.876.892-1.356a1.466 1.466 0 0 0-.22-1.127l.003.005c-.31-.468-.728-.69-1.588-.842-.727-.113-.978-.159-1.229-.205l.488.075c-.162-.028-.198-.082-.584-.84-.624-1.234-1.034-1.586-1.858-1.586l-.041-.001c-.226 0-.438.061-.621.168l.006-.003zm.998 2.85c.534 1.04.786 1.212 2.102 1.438l.204.034-.426.45c-.702.742-.856 1.238-.658 2.118.058.256.096.466.086.466-.012 0-.23-.12-.488-.268-.54-.308-.73-.37-1.134-.37-.408 0-.63.072-1.158.376a3.891 3.891 0 0 1-.447.24l-.025.01c.022-.189.053-.357.094-.521l-.006.027c.186-.87.036-1.34-.658-2.038-.238-.242-.424-.45-.41-.464.014-.012.252-.064.53-.112.6-.104 1.042-.318 1.312-.634.102-.12.31-.462.464-.764.099-.213.201-.393.314-.564L16 3.68c.014.002.156.252.314.56zm-2.586 8.136c-.762.094-1.464.44-2.052 1.01-.454.444-.76.92-.94 1.464-.132.402-.144.506-.164 1.612l-.022 1.184-2.916.022c-3.238.024-3.154.016-3.954.402-.308.15-.512.304-.886.676-.552.548-.804.954-.99 1.6l-.124.428v8.87l.16.226c.101.137.225.25.368.335l.006.003.212.112 13.414.014c9.626.01 13.494-.002 13.698-.044a.85.85 0 0 0 .487-.263l.001-.001c.32-.318.334-.466.308-3.058-.022-2.13-.03-2.268-.142-2.648-.186-.626-.442-1.036-.986-1.574-.374-.372-.578-.526-.886-.676-.8-.386-.714-.378-3.96-.402l-2.92-.022V18.66c0-3.366-.012-3.496-.372-4.234a3.718 3.718 0 0 0-2.27-1.943l-.026-.007c-.378-.114-.504-.12-2.532-.134a42.446 42.446 0 0 0-2.603.038l.091-.003zm4.822 2.154c.574.318.846.798.898 1.584.018.274.014 3.134-.008 6.352l-.04 5.854h-6.814l-.012-4.866c-.024-8.41-.032-7.818.1-8.1.18-.375.474-.671.835-.851l.011-.005.32-.154 4.426.03.284.156zM10.56 24v4.32H3.68v-3.652c0-4.2-.022-3.99.488-4.5.494-.494.398-.482 3.606-.486l2.786-.002V24zm16.712-.212c.423.186.754.517.935.928l.005.012c.1.268.108.412.108 1.94v1.652h-6.88v-4.64h2.772c2.654 0 2.782.004 3.06.108z"/></symbol><symbol id="icon-logo" viewBox="0 0 55 32"><path fill="#173d33" style="fill:var(--color1, #173d33)" d="M37.919 22.773c-.115-.273-9.583-18.774-9.738-19.029-.327-.772-.812-1.47-1.425-2.049S25.416.667 24.62.378a6.248 6.248 0 0 0-4.925.28c-.757.378-1.427.906-1.968 1.55S16.785 3.6 16.55 4.405a6.012 6.012 0 0 0 .641 4.822c.115.273 9.177 17.981 9.332 18.236.116.274.251.539.406.793.327.772.812 1.47 1.425 2.049s1.34 1.028 2.136 1.317a6.266 6.266 0 0 0 4.925-.28 6.159 6.159 0 0 0 1.968-1.55c.541-.645.942-1.393 1.177-2.197a6.01 6.01 0 0 0-.641-4.822z"/><path fill="#97d28b" style="fill:var(--color2, #97d28b)" d="M26.985 10.254c.58-.61 1.027-1.331 1.312-2.119A6.023 6.023 0 0 0 26.37 1.36C25.711.833 24.949.446 24.131.223s-1.673-.278-2.513-.161c-.84.117-1.646.404-2.369.842s-1.346 1.019-1.831 1.705c-.204.214-15.577 18.897-15.748 19.139-.58.61-1.027 1.331-1.312 2.119a6.006 6.006 0 0 0 .335 4.851 6.104 6.104 0 0 0 1.592 1.924c.659.527 1.421.914 2.239 1.137s1.673.278 2.513.161c.84-.117 1.646-.404 2.369-.842s1.346-1.019 1.831-1.705c.204-.214 15.577-18.897 15.748-19.138zM53.439 10.254c.58-.61 1.027-1.331 1.312-2.119a6.006 6.006 0 0 0-.335-4.851c-.391-.742-.933-1.397-1.592-1.924S51.403.446 50.585.223C49.767 0 48.912-.055 48.072.062s-1.646.404-2.369.842a6.147 6.147 0 0 0-1.831 1.705c-.204.214-15.577 18.897-15.748 19.139-.58.61-1.027 1.331-1.312 2.119a6.023 6.023 0 0 0 1.927 6.775c.659.527 1.421.914 2.239 1.137s1.673.278 2.513.161c.84-.117 1.646-.404 2.369-.842s1.346-1.019 1.831-1.705c.204-.214 15.577-18.897 15.748-19.138z"/></symbol></defs></svg>